<svg viewBox="0 0 960 436" xmlns="http://www.w3.org/2000/svg"><g fill="none" fill-rule="evenodd"><path d="M606 14h204v68h-68v68h-68v68h-68v68h-68V82h68V14zm-68 340h68v68h-68v-68zM878 82h68v272h-68v68H674V286h68v-68h68v-68h68V82z" fill="#404040"/><path d="M810 218h68v68h-68v68h-68v-68h68v-68zM606 82h68v68h-68V82z" fill="#FFF"/><path d="M20 20h56v56H20zm68 204h56v56H88zm0 68h56v56H88zm-68 0h56v56H20zm68 68h56v56H88zm68-136h56v56h-56zm0-68h56v56h-56zm68 0h56v56h-56zm0-68h56v56h-56zm68 0h56v56h-56zm0-68h56v56h-56zm68 0h56v56h-56zM88 88h56v56H88zm136 204h56v56h-56zm68-68h56v56h-56zm68 136h56v56h-56z" fill="#E7E7E7"/><path d="M88 20h56v56H88zM20 88h56v56H20zm0 68h56v56H20zm0 68h56v56H20zm0 136h56v56H20zm136 0h56v56h-56zm0-68h56v56h-56zm68-68h56v56h-56zm0-204h56v56h-56zm-68 0h56v56h-56zm0 68h56v56h-56zm-68 68h56v56H88zm204 0h56v56h-56zm0 136h56v56h-56zm0 68h56v56h-56zm-68 0h56v56h-56zm136-68h56v56h-56zm0-68h56v56h-56zm0-68h56v56h-56zm0-68h56v56h-56zm126.9 136l-4.9 14 40-20-40-20 4.9 14H438v12h48.9z" fill="#404040"/><path d="M879 82h68v272h-68v68H675V286h62v62h68v-56h68v-68h-56v56h-68v-68h62v-62h68zM607 14h204v68h-68v68h-62V88h-68v68h62v62h-68v68h-68V82h68zm-68 340h68v68h-68z" stroke-width="4" stroke="#F5A623"/></g></svg>